<svg width="40" height="40" viewBox="0 0 40 40" fill="none" xmlns="http://www.w3.org/2000/svg">
<rect width="40" height="40" rx="20" fill="#00ACB3" fill-opacity="0.5"/>
<path d="M20.5 19.95C20.9833 19.4167 21.3542 18.8083 21.6125 18.125C21.8708 17.4417 22 16.7333 22 16C22 15.2667 21.8708 14.5583 21.6125 13.875C21.3542 13.1917 20.9833 12.5833 20.5 12.05C21.5 12.1833 22.3333 12.625 23 13.375C23.6667 14.125 24 15 24 16C24 17 23.6667 17.875 23 18.625C22.3333 19.375 21.5 19.8167 20.5 19.95ZM26 28V25C26 24.4 25.8667 23.8292 25.6 23.2875C25.3333 22.7458 24.9833 22.2667 24.55 21.85C25.4 22.15 26.1875 22.5375 26.9125 23.0125C27.6375 23.4875 28 24.15 28 25V28H26ZM28 21V19H26V17H28V15H30V17H32V19H30V21H28ZM16 20C14.9 20 13.9583 19.6083 13.175 18.825C12.3917 18.0417 12 17.1 12 16C12 14.9 12.3917 13.9583 13.175 13.175C13.9583 12.3917 14.9 12 16 12C17.1 12 18.0417 12.3917 18.825 13.175C19.6083 13.9583 20 14.9 20 16C20 17.1 19.6083 18.0417 18.825 18.825C18.0417 19.6083 17.1 20 16 20ZM8 28V25.2C8 24.6333 8.14583 24.1125 8.4375 23.6375C8.72917 23.1625 9.11667 22.8 9.6 22.55C10.6333 22.0333 11.6833 21.6458 12.75 21.3875C13.8167 21.1292 14.9 21 16 21C17.1 21 18.1833 21.1292 19.25 21.3875C20.3167 21.6458 21.3667 22.0333 22.4 22.55C22.8833 22.8 23.2708 23.1625 23.5625 23.6375C23.8542 24.1125 24 24.6333 24 25.2V28H8ZM16 18C16.55 18 17.0208 17.8042 17.4125 17.4125C17.8042 17.0208 18 16.55 18 16C18 15.45 17.8042 14.9792 17.4125 14.5875C17.0208 14.1958 16.55 14 16 14C15.45 14 14.9792 14.1958 14.5875 14.5875C14.1958 14.9792 14 15.45 14 16C14 16.55 14.1958 17.0208 14.5875 17.4125C14.9792 17.8042 15.45 18 16 18ZM10 26H22V25.2C22 25.0167 21.9542 24.85 21.8625 24.7C21.7708 24.55 21.65 24.4333 21.5 24.35C20.6 23.9 19.6917 23.5625 18.775 23.3375C17.8583 23.1125 16.9333 23 16 23C15.0667 23 14.1417 23.1125 13.225 23.3375C12.3083 23.5625 11.4 23.9 10.5 24.35C10.35 24.4333 10.2292 24.55 10.1375 24.7C10.0458 24.85 10 25.0167 10 25.2V26Z" fill="#06F5FF"/>
</svg>
