<svg width="50" height="50" viewBox="0 0 50 50" fill="none" xmlns="http://www.w3.org/2000/svg">
<rect x="0.5" y="0.5" width="49" height="49" rx="24.5" fill="#00888E" fill-opacity="0.4"/>
<rect x="0.5" y="0.5" width="49" height="49" rx="24.5" stroke="#00ACB3"/>
<path d="M18.0764 36.4558L24.9998 32.07L31.9232 36.5135L30.1099 28.2035L36.2091 22.6635L28.1868 21.9133L24.9998 14.065L21.8129 21.8556L13.7905 22.6058L19.8897 28.2035L18.0764 36.4558ZM24.9998 34.7869L17.0214 39.8467C16.787 39.9683 16.5694 40.0176 16.3687 39.9945C16.1694 39.9699 15.9752 39.8975 15.7862 39.7775C15.5957 39.6544 15.4521 39.4805 15.3554 39.2558C15.2587 39.0311 15.2499 38.7857 15.3291 38.5194L17.4522 29.0322L10.4299 22.6381C10.2321 22.4688 10.1017 22.2665 10.0387 22.031C9.9757 21.7956 9.98962 21.5701 10.0805 21.3547C10.1713 21.1392 10.2922 20.9623 10.4431 20.8238C10.5955 20.6899 10.8006 20.5991 11.0585 20.5514L20.3249 19.7019L23.9382 10.7179C24.0379 10.464 24.1815 10.2808 24.369 10.1685C24.5566 10.0562 24.7668 10 24.9998 10C25.2328 10 25.4438 10.0562 25.6328 10.1685C25.8218 10.2808 25.9647 10.464 26.0614 10.7179L29.6747 19.7019L38.9389 20.5514C39.1983 20.5976 39.4041 20.6891 39.5565 20.8261C39.7089 20.9615 39.8305 21.1377 39.9214 21.3547C40.0107 21.5701 40.0239 21.7956 39.9609 22.031C39.8979 22.2665 39.7675 22.4688 39.5697 22.6381L32.5474 29.0322L34.6706 38.5194C34.7526 38.7826 34.7446 39.0273 34.6464 39.2535C34.5482 39.4797 34.4039 39.6536 34.2134 39.7752C34.0259 39.8983 33.8317 39.9714 33.631 39.9945C33.4317 40.0176 33.2148 39.9683 32.9804 39.8467L24.9998 34.7869Z" fill="#00ACB3"/>
</svg>
