<svg width="35" height="33" viewBox="0 0 35 33" fill="none" xmlns="http://www.w3.org/2000/svg">
<path d="M31.25 16.5H28.75V18.8571H27.5C26.125 18.8571 25 19.9179 25 21.2143V23.5714C25 24.8679 26.125 25.9286 27.5 25.9286H32.5V28.2857H25V30.6429H28.75V33H31.25V30.6429H32.5C33.875 30.6429 35 29.5821 35 28.2857V25.9286C35 24.6321 33.875 23.5714 32.5 23.5714H27.5V21.2143H35V18.8571H31.25V16.5ZM32.5 7.07143H25V2.35714C25 1.06071 23.875 0 22.5 0H12.5C11.125 0 10 1.06071 10 2.35714V7.07143H2.5C1.125 7.07143 0 8.13214 0 9.42857V25.9286C0 27.225 1.125 28.2857 2.5 28.2857H21.25V25.9286H2.5V9.42857H32.5V14.1429H35V9.42857C35 8.13214 33.875 7.07143 32.5 7.07143ZM22.5 7.07143H12.5V2.35714H22.5V7.07143Z" fill="white"/>
</svg>
