<svg width="50" height="50" viewBox="0 0 50 50" fill="none" xmlns="http://www.w3.org/2000/svg">
<rect width="50" height="50" rx="25" fill="#00A9B7"/>
<path d="M38.25 24.5H35.75V26.8571H34.5C33.125 26.8571 32 27.9179 32 29.2143V31.5714C32 32.8679 33.125 33.9286 34.5 33.9286H39.5V36.2857H32V38.6429H35.75V41H38.25V38.6429H39.5C40.875 38.6429 42 37.5821 42 36.2857V33.9286C42 32.6321 40.875 31.5714 39.5 31.5714H34.5V29.2143H42V26.8571H38.25V24.5ZM39.5 15.0714H32V10.3571C32 9.06071 30.875 8 29.5 8H19.5C18.125 8 17 9.06071 17 10.3571V15.0714H9.5C8.125 15.0714 7 16.1321 7 17.4286V33.9286C7 35.225 8.125 36.2857 9.5 36.2857H28.25V33.9286H9.5V17.4286H39.5V22.1429H42V17.4286C42 16.1321 40.875 15.0714 39.5 15.0714ZM29.5 15.0714H19.5V10.3571H29.5V15.0714Z" fill="black"/>
</svg>
