<svg width="50" height="50" viewBox="0 0 50 50" fill="none" xmlns="http://www.w3.org/2000/svg">
<rect width="50" height="50" rx="25" fill="#00A9B7"/>
<path d="M34 26.875V23.125H40V26.875H34ZM35.8 40L31 35.5L32.8 32.5L37.6 37L35.8 40ZM32.8 17.5L31 14.5L35.8 10L37.6 13L32.8 17.5ZM14.5 38.125V30.625H13C12.175 30.625 11.469 30.2581 10.882 29.5244C10.295 28.7906 10.001 27.9075 10 26.875V23.125C10 22.0938 10.294 21.2113 10.882 20.4775C11.47 19.7438 12.176 19.3763 13 19.375H19L26.5 13.75V36.25L19 30.625H17.5V38.125H14.5ZM28 31.2812V18.7187C28.675 19.4687 29.219 20.3831 29.632 21.4619C30.045 22.5406 30.251 23.72 30.25 25C30.249 26.28 30.0425 27.46 29.6305 28.54C29.2185 29.62 28.675 30.5338 28 31.2812Z" fill="black"/>
</svg>
