<svg width="30" height="30" viewBox="0 0 30 30" fill="none" xmlns="http://www.w3.org/2000/svg">
<path d="M24 16.875V13.125H30V16.875H24ZM25.8 30L21 25.5L22.8 22.5L27.6 27L25.8 30ZM22.8 7.5L21 4.5L25.8 0L27.6 3L22.8 7.5ZM4.5 28.125V20.625H3C2.175 20.625 1.469 20.2581 0.882 19.5244C0.295 18.7906 0.001 17.9075 0 16.875V13.125C0 12.0938 0.294 11.2113 0.882 10.4775C1.47 9.74375 2.176 9.37625 3 9.375H9L16.5 3.75V26.25L9 20.625H7.5V28.125H4.5ZM18 21.2812V8.71875C18.675 9.46875 19.219 10.3831 19.632 11.4619C20.045 12.5406 20.251 13.72 20.25 15C20.249 16.28 20.0425 17.46 19.6305 18.54C19.2185 19.62 18.675 20.5338 18 21.2812Z" fill="white"/>
</svg>
