<svg width="50" height="50" viewBox="0 0 50 50" fill="none" xmlns="http://www.w3.org/2000/svg">
<rect width="50" height="50" rx="25" fill="#00A9B7"/>
<g clip-path="url(#clip0_205_140)">
<path d="M18.25 31.75L28.75 28.75L31.75 18.25L21.25 21.25L18.25 31.75ZM25 27.25C24.375 27.25 23.844 27.0315 23.407 26.5945C22.97 26.1575 22.751 25.626 22.75 25C22.749 24.374 22.968 23.843 23.407 23.407C23.846 22.971 24.377 22.752 25 22.75C25.623 22.748 26.1545 22.967 26.5945 23.407C27.0345 23.847 27.253 24.378 27.25 25C27.247 25.622 27.0285 26.1535 26.5945 26.5945C26.1605 27.0355 25.629 27.254 25 27.25ZM25 40C22.925 40 20.975 39.606 19.15 38.818C17.325 38.03 15.7375 36.9615 14.3875 35.6125C13.0375 34.2635 11.969 32.676 11.182 30.85C10.395 29.024 10.001 27.074 10 25C9.999 22.926 10.393 20.976 11.182 19.15C11.971 17.324 13.0395 15.7365 14.3875 14.3875C15.7355 13.0385 17.323 11.97 19.15 11.182C20.977 10.394 22.927 10 25 10C27.073 10 29.023 10.394 30.85 11.182C32.677 11.97 34.2645 13.0385 35.6125 14.3875C36.9605 15.7365 38.0295 17.324 38.8195 19.15C39.6095 20.976 40.003 22.926 40 25C39.997 27.074 39.603 29.024 38.818 30.85C38.033 32.676 36.9645 34.2635 35.6125 35.6125C34.2605 36.9615 32.673 38.0305 30.85 38.8195C29.027 39.6085 27.077 40.002 25 40ZM25 37C28.325 37 31.1565 35.8315 33.4945 33.4945C35.8325 31.1575 37.001 28.326 37 25C36.999 21.674 35.8305 18.8425 33.4945 16.5055C31.1585 14.1685 28.327 13 25 13C21.673 13 18.8415 14.169 16.5055 16.507C14.1695 18.845 13.001 21.676 13 25C12.999 28.324 14.168 31.1555 16.507 33.4945C18.846 35.8335 21.677 37.002 25 37Z" fill="black"/>
</g>
<defs>
<clipPath id="clip0_205_140">
<rect width="30" height="30" fill="white" transform="translate(10 10)"/>
</clipPath>
</defs>
</svg>
