<svg width="30" height="30" viewBox="0 0 30 30" fill="none" xmlns="http://www.w3.org/2000/svg">
<path d="M8.15934 21.75L18.5439 18.75L21.511 8.25L11.1264 11.25L8.15934 21.75ZM14.8352 17.25C14.217 17.25 13.6919 17.0315 13.2597 16.5945C12.8275 16.1575 12.6109 15.626 12.6099 15C12.6089 14.374 12.8255 13.843 13.2597 13.407C13.6938 12.971 14.219 12.752 14.8352 12.75C15.4513 12.748 15.977 12.967 16.4121 13.407C16.8473 13.847 17.0634 14.378 17.0604 15C17.0575 15.622 16.8414 16.1535 16.4121 16.5945C15.9829 17.0355 15.4572 17.254 14.8352 17.25ZM14.8352 30C12.783 30 10.8544 29.606 9.04945 28.818C7.2445 28.03 5.67445 26.9615 4.33928 25.6125C3.00412 24.2635 1.94736 22.676 1.16901 20.85C0.390661 19.024 0.000990888 17.074 1.87787e-06 15C-0.000987132 12.926 0.388683 10.976 1.16901 9.15C1.94934 7.324 3.0061 5.7365 4.33928 4.3875C5.67247 3.0385 7.24253 1.97 9.04945 1.182C10.8564 0.394 12.7849 0 14.8352 0C16.8854 0 18.8139 0.394 20.6209 1.182C22.4278 1.97 23.9978 3.0385 25.331 4.3875C26.6642 5.7365 27.7215 7.324 28.5028 9.15C29.2841 10.976 29.6733 12.926 29.6703 15C29.6673 17.074 29.2777 19.024 28.5013 20.85C27.7249 22.676 26.6682 24.2635 25.331 25.6125C23.9939 26.9615 22.4238 28.0305 20.6209 28.8195C18.8179 29.6085 16.8893 30.002 14.8352 30ZM14.8352 27C18.1236 27 20.924 25.8315 23.2363 23.4945C25.5486 21.1575 26.7043 18.326 26.7033 15C26.7023 11.674 25.5466 8.8425 23.2363 6.5055C20.926 4.1685 18.1256 3 14.8352 3C11.5447 3 8.74434 4.169 6.43401 6.507C4.12368 8.845 2.96802 11.676 2.96703 15C2.96604 18.324 4.1222 21.1555 6.43549 23.4945C8.74879 25.8335 11.5487 27.002 14.8352 27Z" fill="white"/>
</svg>
