<svg width="50" height="50" viewBox="0 0 50 50" fill="none" xmlns="http://www.w3.org/2000/svg">
<rect width="50" height="50" rx="25" fill="#00A9B7"/>
<path d="M12 33.875C12 32.2174 12.6585 30.6277 13.8306 29.4556C15.0027 28.2835 16.5924 27.625 18.25 27.625H30.75C32.4076 27.625 33.9973 28.2835 35.1694 29.4556C36.3415 30.6277 37 32.2174 37 33.875C37 34.7038 36.6708 35.4987 36.0847 36.0847C35.4987 36.6708 34.7038 37 33.875 37H15.125C14.2962 37 13.5013 36.6708 12.9153 36.0847C12.3292 35.4987 12 34.7038 12 33.875Z" stroke="black" stroke-width="2" stroke-linejoin="round"/>
<path d="M24.5 21.375C27.0888 21.375 29.1875 19.2763 29.1875 16.6875C29.1875 14.0987 27.0888 12 24.5 12C21.9112 12 19.8125 14.0987 19.8125 16.6875C19.8125 19.2763 21.9112 21.375 24.5 21.375Z" stroke="black" stroke-width="2"/>
</svg>
