<svg width="26" height="26" viewBox="0 0 26 26" fill="none" xmlns="http://www.w3.org/2000/svg">
<path d="M0.5 22.375C0.5 20.7174 1.15848 19.1277 2.33058 17.9556C3.50268 16.7835 5.0924 16.125 6.75 16.125H19.25C20.9076 16.125 22.4973 16.7835 23.6694 17.9556C24.8415 19.1277 25.5 20.7174 25.5 22.375C25.5 23.2038 25.1708 23.9987 24.5847 24.5847C23.9987 25.1708 23.2038 25.5 22.375 25.5H3.625C2.7962 25.5 2.00134 25.1708 1.41529 24.5847C0.82924 23.9987 0.5 23.2038 0.5 22.375Z" stroke="white" stroke-linejoin="round"/>
<path d="M13 9.875C15.5888 9.875 17.6875 7.77633 17.6875 5.1875C17.6875 2.59867 15.5888 0.5 13 0.5C10.4112 0.5 8.3125 2.59867 8.3125 5.1875C8.3125 7.77633 10.4112 9.875 13 9.875Z" stroke="white"/>
</svg>
