<svg width="50" height="50" viewBox="0 0 50 50" fill="none" xmlns="http://www.w3.org/2000/svg">
<rect x="0.5" y="0.5" width="49" height="49" rx="24.5" fill="#A24100" fill-opacity="0.4"/>
<rect x="0.5" y="0.5" width="49" height="49" rx="24.5" stroke="#FF5500"/>
<path d="M24.5 18.9448V36.9999M12 20.3337C12 19.9653 12.1463 19.6121 12.4068 19.3516C12.6673 19.0911 13.0205 18.9448 13.3889 18.9448H35.6111C35.9795 18.9448 36.3327 19.0911 36.5932 19.3516C36.8537 19.6121 37 19.9653 37 20.3337V23.1114C37 23.4797 36.8537 23.833 36.5932 24.0934C36.3327 24.3539 35.9795 24.5002 35.6111 24.5002H13.3889C13.0205 24.5002 12.6673 24.3539 12.4068 24.0934C12.1463 23.833 12 23.4797 12 23.1114V20.3337Z" stroke="#FF5500" stroke-width="2" stroke-linecap="round" stroke-linejoin="round"/>
<path d="M34.2222 24.5003V34.2222C34.2222 34.9589 33.9296 35.6654 33.4086 36.1864C32.8877 36.7073 32.1812 36.9999 31.4444 36.9999H17.5556C16.8188 36.9999 16.1123 36.7073 15.5914 36.1864C15.0704 35.6654 14.7778 34.9589 14.7778 34.2222V24.5003M18.25 18.9449C17.3291 18.9449 16.4459 18.5791 15.7948 17.9279C15.1436 17.2768 14.7778 16.3936 14.7778 15.4727C14.7778 14.5519 15.1436 13.6687 15.7948 13.0176C16.4459 12.3664 17.3291 12.0006 18.25 12.0006C19.5898 11.9773 20.9028 12.6273 22.0177 13.8661C23.1326 15.1048 23.9976 16.8746 24.5 18.9449C25.0024 16.8746 25.8674 15.1048 26.9823 13.8661C28.0972 12.6273 29.4102 11.9773 30.75 12.0006C31.6709 12.0006 32.5541 12.3664 33.2052 13.0176C33.8564 13.6687 34.2222 14.5519 34.2222 15.4727C34.2222 16.3936 33.8564 17.2768 33.2052 17.9279C32.5541 18.5791 31.6709 18.9449 30.75 18.9449" stroke="#FF5500" stroke-width="2" stroke-linecap="round" stroke-linejoin="round"/>
</svg>
