<svg width="50" height="50" viewBox="0 0 50 50" fill="none" xmlns="http://www.w3.org/2000/svg">
<rect width="50" height="50" rx="25" fill="#F0E4E4" fill-opacity="0.2"/>
<rect x="0.5" y="0.5" width="49" height="49" rx="24.5" stroke="white" stroke-opacity="0.6"/>
<path d="M16 18.25H22" stroke="white" stroke-opacity="0.6" stroke-width="1.5" stroke-linecap="round" stroke-linejoin="round"/>
<path d="M38.2495 19.8125H34.3465C31.669 19.8125 29.5 21.9109 29.5 24.5C29.5 27.0891 31.6705 29.1875 34.345 29.1875H38.2495C38.3755 29.1875 38.437 29.1875 38.4895 29.1844C39.2995 29.1328 39.9445 28.5094 39.997 27.7266C40 27.6766 40 27.6156 40 27.4953V21.5047C40 21.3844 40 21.3234 39.997 21.2734C39.943 20.4906 39.2995 19.8672 38.4895 19.8156C38.4385 19.8125 38.3755 19.8125 38.2495 19.8125Z" stroke="white" stroke-opacity="0.6" stroke-width="1.5"/>
<path d="M38.4475 19.8125C38.3305 16.8875 37.9555 15.0937 36.742 13.8312C34.9855 12 32.1565 12 26.5 12H22C16.3435 12 13.5145 12 11.758 13.8312C10.0015 15.6625 10 18.6078 10 24.5C10 30.3922 10 33.3391 11.758 35.1687C13.516 36.9984 16.3435 37 22 37H26.5C32.1565 37 34.9855 37 36.742 35.1687C37.9555 33.9062 38.332 32.1125 38.4475 29.1875" stroke="white" stroke-opacity="0.6" stroke-width="1.5"/>
<path d="M33.9865 24.5H34.0015" stroke="white" stroke-opacity="0.6" stroke-width="2" stroke-linecap="round" stroke-linejoin="round"/>
</svg>
