<svg width="50" height="50" viewBox="0 0 50 50" fill="none" xmlns="http://www.w3.org/2000/svg">
<rect x="0.5" y="0.5" width="49" height="49" rx="24.5" fill="#8E8200" fill-opacity="0.4"/>
<rect x="0.5" y="0.5" width="49" height="49" rx="24.5" stroke="#FFD000"/>
<path d="M24.0625 38.125V31.0863C22.3387 30.9587 20.8394 30.3344 19.5644 29.2131C18.2894 28.0919 17.4906 26.6806 17.1681 24.9794C15.1844 24.7456 13.4938 23.9325 12.0963 22.54C10.6988 21.1475 10 19.4675 10 17.5V16.7781C10 15.9406 10.295 15.2263 10.885 14.635C11.475 14.045 12.19 13.75 13.03 13.75H16.8512V13.0281C16.8512 12.1906 17.1463 11.4763 17.7363 10.885C18.3263 10.295 19.0406 10 19.8794 10H30.1206C30.9594 10 31.6737 10.295 32.2638 10.885C32.8537 11.475 33.1488 12.1894 33.1488 13.0281V13.75H36.9719C37.8094 13.75 38.5238 14.045 39.115 14.635C39.705 15.225 40 15.94 40 16.78V17.5C40 19.4663 39.3013 21.1462 37.9037 22.54C36.5063 23.9337 34.8156 24.7463 32.8319 24.9775C32.5094 26.68 31.7106 28.0919 30.4356 29.2131C29.1606 30.3344 27.6612 30.9594 25.9375 31.0881V38.125H30.8425C31.1087 38.125 31.3313 38.2144 31.51 38.3931C31.69 38.5719 31.78 38.795 31.78 39.0625C31.78 39.33 31.69 39.5531 31.51 39.7319C31.33 39.9106 31.1075 40 30.8425 40H19.1594C18.8919 40 18.6687 39.9106 18.49 39.7319C18.31 39.5531 18.22 39.33 18.22 39.0625C18.22 38.795 18.31 38.5719 18.49 38.3931C18.67 38.2144 18.8931 38.125 19.1594 38.125H24.0625ZM16.8512 22.9675V15.625H13.0281C12.6919 15.625 12.4156 15.7331 12.1994 15.9494C11.9831 16.1656 11.875 16.4425 11.875 16.78V17.5C11.875 18.9038 12.3513 20.1244 13.3038 21.1619C14.255 22.1994 15.4375 22.8013 16.8512 22.9675ZM29.3988 27.4525C30.6012 26.25 31.2025 24.7837 31.2025 23.0538V13.03C31.2025 12.6925 31.0938 12.4156 30.8762 12.1994C30.6612 11.9831 30.385 11.875 30.0475 11.875H19.9525C19.615 11.875 19.3387 11.9831 19.1238 12.1994C18.9062 12.4156 18.7975 12.6925 18.7975 13.03V23.0538C18.7975 24.7837 19.3988 26.25 20.6013 27.4525C21.8038 28.6537 23.27 29.2544 25 29.2544C26.73 29.2544 28.1962 28.6537 29.3988 27.4525ZM33.1488 22.9656C34.5625 22.8006 35.7456 22.1994 36.6981 21.1619C37.6494 20.1244 38.125 18.9038 38.125 17.5V16.7781C38.125 16.4419 38.0169 16.1656 37.8006 15.9494C37.5844 15.7331 37.3081 15.625 36.9719 15.625H33.1488V22.9656Z" fill="#FFD000"/>
</svg>
